<mxfile host="app.diagrams.net" modified="2024-07-05T21:57:32.806Z" agent="Mozilla/5.0 (Windows NT 10.0; Win64; x64; rv:126.0) Gecko/20100101 Firefox/126.0" etag="8DYFCxka4B1DazqgcDQT" version="24.6.4" type="device">
  <diagram name="Page-1" id="uQyoIxlYp8-4TI52-IyL">
    <mxGraphModel dx="1050" dy="538" grid="1" gridSize="10" guides="1" tooltips="1" connect="1" arrows="1" fold="1" page="1" pageScale="1" pageWidth="850" pageHeight="1100" math="0" shadow="0">
      <root>
        <mxCell id="0" />
        <mxCell id="1" parent="0" />
        <mxCell id="ZRiboyrlet4BVmgm1eoY-9" style="edgeStyle=orthogonalEdgeStyle;rounded=0;orthogonalLoop=1;jettySize=auto;html=1;entryX=0;entryY=0.5;entryDx=0;entryDy=0;" edge="1" parent="1" source="ZRiboyrlet4BVmgm1eoY-2" target="ZRiboyrlet4BVmgm1eoY-3">
          <mxGeometry relative="1" as="geometry">
            <Array as="points">
              <mxPoint x="160" y="95" />
            </Array>
          </mxGeometry>
        </mxCell>
        <mxCell id="ZRiboyrlet4BVmgm1eoY-13" style="edgeStyle=orthogonalEdgeStyle;rounded=0;orthogonalLoop=1;jettySize=auto;html=1;entryX=0;entryY=0.5;entryDx=0;entryDy=0;endArrow=none;endFill=0;dashed=1;" edge="1" parent="1" source="ZRiboyrlet4BVmgm1eoY-2" target="ZRiboyrlet4BVmgm1eoY-5">
          <mxGeometry relative="1" as="geometry" />
        </mxCell>
        <mxCell id="ZRiboyrlet4BVmgm1eoY-2" value="Normalno" style="ellipse;whiteSpace=wrap;html=1;fontStyle=1;fillColor=#dae8fc;strokeColor=#6c8ebf;" vertex="1" parent="1">
          <mxGeometry x="120" y="160" width="80" height="50" as="geometry" />
        </mxCell>
        <mxCell id="ZRiboyrlet4BVmgm1eoY-11" style="edgeStyle=orthogonalEdgeStyle;rounded=0;orthogonalLoop=1;jettySize=auto;html=1;entryX=0.5;entryY=0;entryDx=0;entryDy=0;" edge="1" parent="1" source="ZRiboyrlet4BVmgm1eoY-3" target="ZRiboyrlet4BVmgm1eoY-4">
          <mxGeometry relative="1" as="geometry" />
        </mxCell>
        <mxCell id="ZRiboyrlet4BVmgm1eoY-16" style="edgeStyle=orthogonalEdgeStyle;rounded=0;orthogonalLoop=1;jettySize=auto;html=1;" edge="1" parent="1" source="ZRiboyrlet4BVmgm1eoY-3" target="ZRiboyrlet4BVmgm1eoY-2">
          <mxGeometry relative="1" as="geometry" />
        </mxCell>
        <mxCell id="ZRiboyrlet4BVmgm1eoY-3" value="Na čekanju" style="ellipse;whiteSpace=wrap;html=1;fontStyle=1;fillColor=#dae8fc;strokeColor=#6c8ebf;" vertex="1" parent="1">
          <mxGeometry x="280" y="70" width="80" height="50" as="geometry" />
        </mxCell>
        <mxCell id="ZRiboyrlet4BVmgm1eoY-8" style="edgeStyle=orthogonalEdgeStyle;rounded=0;orthogonalLoop=1;jettySize=auto;html=1;entryX=0.5;entryY=1;entryDx=0;entryDy=0;" edge="1" parent="1" source="ZRiboyrlet4BVmgm1eoY-4" target="ZRiboyrlet4BVmgm1eoY-2">
          <mxGeometry relative="1" as="geometry">
            <Array as="points">
              <mxPoint x="490" y="250" />
              <mxPoint x="160" y="250" />
            </Array>
          </mxGeometry>
        </mxCell>
        <mxCell id="ZRiboyrlet4BVmgm1eoY-12" style="edgeStyle=orthogonalEdgeStyle;rounded=0;orthogonalLoop=1;jettySize=auto;html=1;entryX=0;entryY=0.5;entryDx=0;entryDy=0;dashed=1;endArrow=none;endFill=0;" edge="1" parent="1" source="ZRiboyrlet4BVmgm1eoY-4" target="ZRiboyrlet4BVmgm1eoY-7">
          <mxGeometry relative="1" as="geometry" />
        </mxCell>
        <mxCell id="ZRiboyrlet4BVmgm1eoY-4" value="Aktivno" style="ellipse;whiteSpace=wrap;html=1;fontStyle=1;fillColor=#dae8fc;strokeColor=#6c8ebf;" vertex="1" parent="1">
          <mxGeometry x="450" y="160" width="80" height="50" as="geometry" />
        </mxCell>
        <mxCell id="ZRiboyrlet4BVmgm1eoY-5" value="Preusmjeri razriješene alarme na obavijesti" style="rounded=0;whiteSpace=wrap;html=1;fillColor=#fff2cc;strokeColor=#d6b656;" vertex="1" parent="1">
          <mxGeometry x="250" y="155" width="150" height="60" as="geometry" />
        </mxCell>
        <mxCell id="ZRiboyrlet4BVmgm1eoY-7" value="Preusmjeri nove alarme na obavijesti" style="rounded=0;whiteSpace=wrap;html=1;fillColor=#fff2cc;strokeColor=#d6b656;" vertex="1" parent="1">
          <mxGeometry x="590" y="155" width="150" height="60" as="geometry" />
        </mxCell>
        <mxCell id="ZRiboyrlet4BVmgm1eoY-14" value="Razriješen" style="text;html=1;align=center;verticalAlign=middle;whiteSpace=wrap;rounded=0;fontStyle=2" vertex="1" parent="1">
          <mxGeometry x="295" y="250" width="60" height="30" as="geometry" />
        </mxCell>
      </root>
    </mxGraphModel>
  </diagram>
</mxfile>
